<svg width="21" height="21" viewBox="0 0 21 21" xmlns="http://www.w3.org/2000/svg"><title>Group 2</title><g fill="#FE4661" fill-rule="evenodd"><path d="M15.606 5.723c0 2.818-1.487 6.538-5.105 6.538-3.764 0-5.107-3.72-5.107-6.538C5.394 2.907 6.64 0 10.5 0c4.003 0 5.105 2.906 5.105 5.723zM14.385 13.985c-.553-.214-1.494-.388-2.088-.388H8.702c-.593 0-1.533.174-2.087.388l-5.608 2.171C.454 16.37 0 17.031 0 17.625v2.297C0 20.515.486 21 1.08 21h18.84c.593 0 1.08-.485 1.08-1.078v-2.297c0-.594-.453-1.256-1.006-1.469l-5.609-2.17z"/></g></svg>