<?xml version="1.0" encoding="UTF-8"?>
<svg width="17px" height="17px" viewBox="0 0 17 17" version="1.1" xmlns="http://www.w3.org/2000/svg" xmlns:xlink="http://www.w3.org/1999/xlink">
    <!-- Generator: Sketch 43 (38999) - http://www.bohemiancoding.com/sketch -->
    <title>Group 15</title>
    <desc>Created with Sketch.</desc>
    <defs></defs>
    <g id="Участие" stroke="none" stroke-width="1" fill="none" fill-rule="evenodd">
        <g id="Событие-БУДУЩЕЕ---маленькое_ГЛАВНАЯ" transform="translate(-853.000000, -486.000000)" fill="#FFFFFF">
            <g id="Group-22" transform="translate(711.000000, 450.000000)">
                <g id="Group-21" transform="translate(12.000000, 0.000000)">
                    <g id="Group-2" transform="translate(123.000000, 30.000000)">
                        <g id="Group-15" transform="translate(7.000000, 6.000000)">
                            <path d="M0.614715822,16.6325284 L3.94671582,16.6325284 L3.94671582,5.92863902 L0.614715822,5.92863902 L0.614715822,16.6325284 Z M2.2818126,0.607403994 C3.34725038,0.607403994 4.21088172,1.47228879 4.21088172,2.53584639 C4.21088172,3.60065745 3.34725038,4.46554224 2.2818126,4.46554224 C1.2129278,4.46554224 0.350863287,3.60065745 0.350863287,2.53584639 C0.350863287,1.47228879 1.2129278,0.607403994 2.2818126,0.607403994 L2.2818126,0.607403994 Z" id="Fill-54"></path>
                            <path d="M9.22627343,5.92863902 L9.22627343,7.39142243 L9.27171121,7.39142243 C9.71543472,6.54941321 10.8021813,5.66259293 12.4216467,5.66259293 C15.7896836,5.66259293 16.4126513,7.87839017 16.4126513,10.7613395 L16.4126513,16.6325284 L13.0869186,16.6325284 L13.0869186,11.4284916 C13.0869186,10.1860031 13.0624762,8.58909985 11.3568356,8.58909985 C9.62424578,8.58909985 9.36039324,9.94126575 9.36039324,11.3366759 L9.36039324,16.6325284 L6.03560061,16.6325284 L6.03560061,5.92863902 L9.22627343,5.92863902 Z" id="Fill-55"></path>
                        </g>
                    </g>
                </g>
            </g>
        </g>
    </g>
</svg>