<?xml version="1.0" encoding="UTF-8"?>
<svg width="15px" height="21px" viewBox="0 0 15 21" version="1.1" xmlns="http://www.w3.org/2000/svg" xmlns:xlink="http://www.w3.org/1999/xlink">
    <!-- Generator: Sketch 43.2 (39069) - http://www.bohemiancoding.com/sketch -->
    <title>Group</title>
    <desc>Created with Sketch.</desc>
    <defs></defs>
    <g id="Главная" stroke="none" stroke-width="1" fill="none" fill-rule="evenodd">
        <g transform="translate(-378.000000, -335.000000)" id="1" fill="#414A78">
            <g transform="translate(55.000000, 191.000000)">
                <g id="Group-8" transform="translate(12.000000, 67.622951)">
                    <g id="Group-10" transform="translate(135.245902, 0.000000)">
                        <g id="Group-7" transform="translate(176.000000, 77.000000)">
                            <g id="Group">
                                <path d="M7.37704918,19.6704918 L7.37704918,19.6704918 C7.24079074,19.6704918 7.1123433,19.6106557 7.03076181,19.5081967 C6.74349084,19.1491803 0,10.6745902 0,6.91885246 C0,3.10491803 3.30925747,0 7.37704918,0 C11.4457088,0 14.7540984,3.10491803 14.7540984,6.91885246 C14.7540984,10.7270492 8.00973963,19.1532787 7.72160077,19.5081967 C7.64001929,19.6106557 7.51243973,19.6704918 7.37704918,19.6704918 L7.37704918,19.6704918 Z M7.37704918,1.14083458 C3.91799421,1.14083458 1.1045849,3.77819672 1.1045849,7.01980626 C1.1045849,9.93283159 6.03641448,16.513994 7.37704918,18.2493294 C8.71935654,16.5211028 13.6495135,9.97390462 13.6495135,7.01980626 C13.6495135,3.77819672 10.8361041,1.14083458 7.37704918,1.14083458 L7.37704918,1.14083458 Z" id="Shape"></path>
                                <ellipse id="Oval-1" cx="7.37704918" cy="6.76229508" rx="2.16972035" ry="2.04918033"></ellipse>
                            </g>
                        </g>
                    </g>
                </g>
            </g>
        </g>
    </g>
</svg>