<?xml version="1.0" encoding="UTF-8"?>
<svg width="31px" height="35px" viewBox="0 0 31 35" version="1.1" xmlns="http://www.w3.org/2000/svg" xmlns:xlink="http://www.w3.org/1999/xlink">
    <!-- Generator: Sketch 42 (36781) - http://www.bohemiancoding.com/sketch -->
    <title>logo</title>
    <desc>Created with Sketch.</desc>
    <defs></defs>
    <g id="Участие" stroke="none" stroke-width="1" fill="none" fill-rule="evenodd">
        <g id="Событие-БУДУЩЕЕ---маленькое_МЕСТО_коротко" transform="translate(-65.000000, -8.000000)">
            <g id="header-light" transform="translate(65.000000, 8.000000)">
                <g id="logo">
                    <rect id="Rectangle-55" fill="#FFFFFF" x="1" y="12" width="29" height="22"></rect>
                    <polygon id="Fill-18" fill="#21253C" points="14.956908 29.1990142 9.23108134 25.2330767 11.1901043 22.5340994 13.869919 24.3865142 19.4153951 14.8921676 22.3569828 16.5341847"></polygon>
                    <path d="M28,30.6682749 L27.8043313,30.6682749 C27.8043313,31.4042605 27.4245384,32 26.7260012,32 L4.27419443,32 C3.56998286,32 3,31.4042605 3,30.6682749 L3,12 L28,12 L28,30.6682749 Z M24.3864314,4 L24.3864314,6.58566017 C24.3864314,8.01166453 23.2049808,9.17151837 21.7457087,9.17151837 C20.2864367,9.17151837 19.0991051,8.01166453 19.0991051,6.58566017 L19.0991051,4 L11.9006921,4 L11.9006921,6.58566017 C11.9006921,8.01166453 10.7135633,9.17151837 9.25408849,9.17151837 C7.79481644,9.17151837 6.60768768,8.01166453 6.60768768,6.58566017 L6.60768768,4 L3.96696496,4 C1.7778541,4 0,5.73710738 0,7.87581687 L0,31.1243812 C0,33.2630907 1.7778541,35 3.96696496,35 L27.033035,35 C29.2219431,35 31,33.2630907 31,31.1243812 L31,7.87581687 C31,5.73710738 29.2219431,4 27.033035,4 L24.3864314,4 Z" id="Fill-19" fill="#FE4661"></path>
                    <path d="M21.8279204,7.84676136 C20.9385842,7.84676136 20.2177925,7.1421875 20.2177925,6.27852273 L20.2177925,1.56823864 C20.2177925,0.704573864 20.9385842,0 21.8279204,0 C22.711557,0 23.4323488,0.704573864 23.4323488,1.56823864 L23.4323488,6.27852273 C23.4323488,7.1421875 22.711557,7.84676136 21.8279204,7.84676136" id="Fill-20" fill="#FFFFFF"></path>
                    <path d="M9.26588942,7.84676136 C8.38225282,7.84676136 7.66146103,7.1421875 7.66146103,6.27852273 L7.66146103,1.56823864 C7.66146103,0.704573864 8.38225282,0 9.26588942,0 C10.149526,0 10.8703178,0.704573864 10.8703178,1.56823864 L10.8703178,6.27852273 C10.8703178,7.1421875 10.149526,7.84676136 9.26588942,7.84676136" id="Fill-21" fill="#FFFFFF"></path>
                </g>
            </g>
        </g>
    </g>
</svg>