<?xml version="1.0" encoding="UTF-8"?>
<svg width="21px" height="21px" viewBox="0 0 21 21" version="1.1" xmlns="http://www.w3.org/2000/svg" xmlns:xlink="http://www.w3.org/1999/xlink">
    <!-- Generator: Sketch 43.2 (39069) - http://www.bohemiancoding.com/sketch -->
    <title>Shape</title>
    <desc>Created with Sketch.</desc>
    <defs></defs>
    <g id="Главная" stroke="none" stroke-width="1" fill="none" fill-rule="evenodd">
        <g transform="translate(-72.000000, -73.000000)" id="Group-6" fill="#999999">
            <g transform="translate(65.000000, 69.000000)">
                <path d="M27.0627666,22.4861295 L20.6213172,16.0446801 C21.492017,14.8431458 22.0127604,13.3710241 22.0127604,11.7763128 C22.0127604,11.6945865 22.0014968,11.6162654 21.9886616,11.5384683 C22.0017588,11.4596233 22.0130223,11.3799925 22.0130223,11.2969565 C22.0130223,7.2735063 18.739516,4 14.7160659,4 C14.6445553,4 14.5756642,4.01126356 14.5067731,4.02095547 C14.4373581,4.01126356 14.3689909,4 14.2974804,4 C10.2737682,4 7.00026194,7.2735063 7.00026194,11.2969565 C7.00026194,11.3786828 7.01126356,11.4570039 7.02436073,11.535063 C7.01100162,11.6139079 7,11.6932768 7,11.7763128 C7,15.799763 10.2732444,19.0735312 14.2969565,19.0735312 C14.368467,19.0735312 14.4370962,19.0622677 14.5065112,19.0523138 C14.5754023,19.0622677 14.6437695,19.0735312 14.715542,19.0735312 C16.079743,19.0735312 17.3535737,18.6900462 18.4469253,18.0354497 L24.9800549,24.5685793 C25.2679306,24.856455 25.6446052,25 26.0215417,25 C26.3984782,25 26.7756767,24.8561931 27.0630286,24.5685793 C27.6379943,23.9936136 27.6379943,23.0613571 27.0627666,22.4861295 L27.0627666,22.4861295 Z M14.5065112,16.1491955 C14.4370962,16.1392416 14.368729,16.127978 14.2969565,16.127978 C11.8975552,16.127978 9.9455532,14.1759761 9.9455532,11.7765748 C9.9455532,11.6948484 9.93455158,11.6165274 9.92145441,11.5387302 C9.93481352,11.4598852 9.94581514,11.3802545 9.94581514,11.2972184 C9.94581514,8.89781714 11.8980791,6.94581514 14.2974804,6.94581514 C14.368729,6.94581514 14.4373581,6.93481352 14.5067731,6.92512162 C14.5756642,6.93481352 14.6442934,6.94581514 14.7160659,6.94581514 C17.1154671,6.94581514 19.0674691,8.89781714 19.0674691,11.2972184 C19.0674691,11.3789447 19.0787327,11.4572658 19.0915679,11.5353249 C19.0784707,11.6141699 19.0669452,11.6935387 19.0669452,11.7765748 C19.0669452,14.1759761 17.1149432,16.127978 14.715542,16.127978 C14.6437695,16.127978 14.5751403,16.1392416 14.5065112,16.1491955 L14.5065112,16.1491955 Z" id="Shape"></path>
            </g>
        </g>
    </g>
</svg>